<svg width="33" height="33" viewBox="0 0 33 33" fill="none" xmlns="http://www.w3.org/2000/svg">
<path d="M30.9117 0.300049H2.08829C1.614 0.300049 1.15914 0.488458 0.823769 0.82383C0.488397 1.1592 0.299988 1.61406 0.299988 2.08835V30.9122C0.300107 31.3864 0.48857 31.8412 0.823928 32.1764C1.15929 32.5117 1.61408 32.7001 2.08829 32.7001H17.6056V20.1532H13.3833V15.2634H17.6056V11.6571C17.6056 7.47215 20.1616 5.1938 23.8948 5.1938C25.6831 5.1938 27.2199 5.32655 27.6681 5.3864V9.75995L25.0788 9.7613C23.0484 9.7613 22.6555 10.7261 22.6555 12.1418V15.2639H27.4975L26.8671 20.1536H22.6555V32.7001H30.9121C31.3863 32.6999 31.8411 32.5115 32.1764 32.1761C32.5116 31.8407 32.7 31.386 32.7 30.9118V2.08835C32.7 1.61406 32.5116 1.1592 32.1762 0.82383C31.8408 0.488458 31.386 0.300049 30.9117 0.300049Z" fill="#CCCCCC"/>
</svg>
