<svg width="33" height="33" viewBox="0 0 33 33" fill="none" xmlns="http://www.w3.org/2000/svg">
<path d="M30.3001 0.300049H2.69174C1.37144 0.300049 0.299988 1.3463 0.299988 2.63465V30.3623C0.299988 31.6525 1.37144 32.7001 2.69174 32.7001H30.3001C31.6213 32.7001 32.7 31.6525 32.7 30.3623V2.63465C32.7 1.3463 31.6213 0.300049 30.3001 0.300049ZM9.90929 27.9093H5.10149V12.4478H9.90929V27.9093ZM7.50539 10.3337C7.13944 10.3337 6.77708 10.2616 6.43901 10.1215C6.10094 9.9814 5.79379 9.77606 5.53511 9.51721C5.27642 9.25836 5.07128 8.95108 4.93141 8.61292C4.79153 8.27476 4.71965 7.91235 4.71989 7.5464C4.71989 6.8077 5.01334 6.09925 5.53568 5.57691C6.05802 5.05457 6.76646 4.76112 7.50516 4.76112C8.24386 4.76112 8.95231 5.05457 9.47465 5.57691C9.99699 6.09925 10.2904 6.8077 10.2904 7.5464C10.2904 8.28525 9.99709 8.99387 9.47485 9.51652C8.95262 10.0392 8.24424 10.3331 7.50539 10.3337ZM27.9075 27.9093H23.1073V20.3907C23.1073 18.597 23.0722 16.2908 20.6094 16.2908C18.1083 16.2908 17.7271 18.2442 17.7271 20.2607V27.9098H12.9234V12.4478H17.5336V14.5592H17.5993C18.241 13.3442 19.8088 12.0621 22.147 12.0621C27.0097 12.0621 27.9079 15.2634 27.9079 19.4282V27.9093H27.9075Z" fill="#CCCCCC"/>
</svg>
