<svg width="35" height="37" viewBox="0 0 35 37" fill="none" xmlns="http://www.w3.org/2000/svg">
<path d="M33.8278 22.2324C34.0775 21.089 34.2107 19.9032 34.2107 18.6851C34.2107 9.55771 26.8118 2.15791 17.6836 2.15791C16.7206 2.15791 15.7774 2.24161 14.858 2.40046C13.3322 1.43695 11.5641 0.926643 9.75954 0.928963C4.46709 0.928963 0.174988 5.21926 0.174988 10.514C0.174988 12.2825 0.656038 13.938 1.49304 15.3596C1.27012 16.4542 1.15795 17.5684 1.15824 18.6855C1.15824 27.8124 8.55624 35.2118 17.6836 35.2118C18.7181 35.2118 19.7288 35.115 20.7116 34.935C22.1041 35.6826 23.6604 36.073 25.2409 36.0713C30.5342 36.0713 34.8254 31.7823 34.8254 26.4876C34.827 25.0111 34.4855 23.5544 33.8278 22.2324ZM26.1611 26.5839C25.3957 27.6644 24.2657 28.5221 22.8032 29.13C21.3529 29.7339 19.6168 30.0395 17.6377 30.0395C15.2653 30.0395 13.2749 29.6201 11.7215 28.7966C10.6114 28.1954 9.69564 27.3845 9.00084 26.3819C8.29839 25.3698 7.94154 24.3645 7.94154 23.3957C7.94154 22.7913 8.17464 22.2662 8.63184 21.8364C9.08454 21.4103 9.66414 21.1934 10.3567 21.1934C10.9241 21.1934 11.4146 21.3644 11.812 21.7001C12.1922 22.0232 12.5189 22.4993 12.7799 23.1167C13.0733 23.7863 13.3933 24.3533 13.7303 24.7997C14.0534 25.2267 14.521 25.589 15.1168 25.8702C15.7148 26.1542 16.523 26.2986 17.5166 26.2986C18.8828 26.2986 20.0038 26.0066 20.8448 25.4301C21.6688 24.8681 22.0688 24.194 22.0688 23.3678C22.0688 22.7157 21.8591 22.2023 21.4294 21.8009C20.9803 21.3806 20.3876 21.053 19.6672 20.8289C18.9161 20.5944 17.8951 20.342 16.6342 20.0774C14.9197 19.7102 13.463 19.2746 12.3029 18.7814C11.1181 18.2774 10.1623 17.5781 9.46434 16.7037C8.75514 15.8145 8.39514 14.7003 8.39514 13.3908C8.39514 12.1425 8.77224 11.018 9.51744 10.0464C10.2568 9.08206 11.3363 8.33326 12.7246 7.81936C14.0971 7.31131 15.7288 7.05571 17.5738 7.05571C19.0498 7.05571 20.3476 7.22626 21.4303 7.56196C22.5197 7.90306 23.4377 8.35891 24.16 8.92411C24.8854 9.49201 25.4272 10.0991 25.7651 10.7295C26.1094 11.3667 26.2835 12.0017 26.2835 12.6155C26.2835 13.2059 26.0554 13.7414 25.6049 14.2098C25.1522 14.6801 24.5821 14.9181 23.908 14.9181C23.296 14.9181 22.8167 14.7696 22.4846 14.4758C22.175 14.2022 21.8537 13.7756 21.4987 13.1622C21.086 12.3801 20.5883 11.7627 20.0159 11.3271C19.4602 10.905 18.5314 10.6908 17.257 10.6908C16.0708 10.6908 15.1073 10.928 14.3932 11.3973C13.7033 11.8491 13.369 12.3666 13.369 12.9818C13.369 13.3584 13.4765 13.6725 13.6979 13.943C13.9342 14.231 14.264 14.4807 14.6839 14.6918C15.1181 14.9096 15.565 15.0837 16.0132 15.207C16.474 15.3353 17.243 15.5243 18.301 15.7677C19.637 16.0562 20.8669 16.377 21.9532 16.7249C23.0534 17.0772 24.0052 17.5119 24.7805 18.0168C25.5725 18.5312 26.1994 19.194 26.6453 19.9842C27.0904 20.7785 27.3158 21.7563 27.3158 22.8944C27.3158 24.2561 26.9275 25.4972 26.1611 26.5839Z" fill="#CCCCCC"/>
</svg>
