<svg width="35" height="29" viewBox="0 0 35 29" fill="none" xmlns="http://www.w3.org/2000/svg">
<path d="M34.825 3.75401C33.5276 4.32878 32.1513 4.70587 30.7421 4.87272C32.2265 3.9846 33.3372 2.58708 33.8674 0.940614C32.4722 1.76886 30.9455 2.35209 29.3534 2.66501C28.6883 1.95556 27.8845 1.39026 26.9919 1.00415C26.0994 0.618048 25.137 0.419364 24.1645 0.420414C20.2387 0.420414 17.0554 3.60281 17.0554 7.52951C17.0554 8.08616 17.1184 8.62932 17.2399 9.14997C11.3314 8.85342 6.09339 6.02292 2.587 1.72136C1.95478 2.80634 1.62257 4.03998 1.62444 5.29571C1.62351 6.46617 1.91172 7.61873 2.46345 8.65099C3.01518 9.68325 3.81335 10.5632 4.78704 11.2128C3.65831 11.1769 2.55445 10.8721 1.56729 10.3236C1.56639 10.3533 1.56639 10.3825 1.56639 10.4131C1.56639 13.8565 4.01664 16.7298 7.26834 17.3836C6.22131 17.6671 5.12351 17.7086 4.05804 17.5051C4.96254 20.3289 7.58784 22.3849 10.6987 22.4425C8.18046 24.4187 5.07078 25.4906 1.86969 25.4859C1.29594 25.4859 0.730295 25.4526 0.173645 25.3864C3.42414 27.4749 7.20721 28.5835 11.0708 28.5796C24.1469 28.5796 31.2974 17.7477 31.2974 8.35436C31.2974 8.04656 31.2902 7.73922 31.2767 7.43367C32.6693 6.42832 33.8709 5.18217 34.825 3.75401Z" fill="#CCCCCC"/>
</svg>
