<svg width="168" height="126" viewBox="0 0 168 126" fill="none" xmlns="http://www.w3.org/2000/svg">
<path d="M38.1638 50.3315C36.3055 50.3315 34.5222 50.6149 32.7472 50.8732C33.3222 48.9399 33.9138 46.9732 34.8638 45.2065C35.8138 42.6399 37.2972 40.4149 38.7722 38.1732C40.0055 35.7482 42.1805 34.1065 43.7805 32.0315C45.4555 30.0149 47.7388 28.6732 49.5472 26.9982C51.3222 25.2482 53.6472 24.3732 55.4972 23.1399C57.4305 22.0315 59.1138 20.8065 60.9138 20.2232L65.4055 18.3732L69.3555 16.7315L65.3138 0.581543L60.3388 1.78154C58.7472 2.18154 56.8055 2.64821 54.5972 3.20654C52.3388 3.62321 49.9305 4.76487 47.2472 5.80654C44.5972 6.98987 41.5305 7.78988 38.6805 9.68988C35.8138 11.5065 32.5055 13.0232 29.5888 15.4565C26.7638 17.9649 23.3555 20.1399 20.8388 23.3315C18.0888 26.3149 15.3722 29.4482 13.2638 33.0149C10.8222 36.4149 9.16382 40.1482 7.41382 43.8399C5.83048 47.5315 4.55549 51.3065 3.51382 54.9732C1.53882 62.3232 0.655485 69.3065 0.313818 75.2815C0.0304847 81.2649 0.197151 86.2399 0.547151 89.8399C0.672151 91.5399 0.905485 93.1899 1.07215 94.3315L1.28048 95.7315L1.49715 95.6815C2.97933 102.605 6.39135 108.968 11.3385 114.033C16.2857 119.098 22.5658 122.66 29.4525 124.305C36.3391 125.95 43.5509 125.612 50.2534 123.33C56.956 121.048 62.8755 116.915 67.3272 111.409C71.7789 105.903 74.5809 99.2492 75.409 92.2173C76.2371 85.1855 75.0574 78.0628 72.0066 71.6734C68.9557 65.2839 64.1583 59.8887 58.1693 56.1119C52.1802 52.3351 45.2443 50.3311 38.1638 50.3315ZM129.83 50.3315C127.972 50.3315 126.189 50.6149 124.414 50.8732C124.989 48.9399 125.58 46.9732 126.53 45.2065C127.48 42.6399 128.964 40.4149 130.439 38.1732C131.672 35.7482 133.847 34.1065 135.447 32.0315C137.122 30.0149 139.405 28.6732 141.214 26.9982C142.989 25.2482 145.314 24.3732 147.164 23.1399C149.097 22.0315 150.78 20.8065 152.58 20.2232L157.072 18.3732L161.022 16.7315L156.98 0.581543L152.005 1.78154C150.414 2.18154 148.472 2.64821 146.264 3.20654C144.005 3.62321 141.597 4.76487 138.914 5.80654C136.272 6.99821 133.197 7.78988 130.347 9.69821C127.48 11.5149 124.172 13.0315 121.256 15.4649C118.43 17.9732 115.022 20.1482 112.505 23.3315C109.755 26.3149 107.039 29.4482 104.93 33.0149C102.489 36.4149 100.83 40.1482 99.0805 43.8399C97.4972 47.5315 96.2222 51.3065 95.1805 54.9732C93.2055 62.3232 92.3222 69.3065 91.9805 75.2815C91.6972 81.2649 91.8638 86.2399 92.2138 89.8399C92.3388 91.5399 92.5722 93.1899 92.7388 94.3315L92.9472 95.7315L93.1638 95.6815C94.646 102.605 98.058 108.968 103.005 114.033C107.952 119.098 114.233 122.66 121.119 124.305C128.006 125.95 135.218 125.612 141.92 123.33C148.623 121.048 154.542 116.915 158.994 111.409C163.446 105.903 166.248 99.2492 167.076 92.2173C167.904 85.1855 166.724 78.0628 163.673 71.6734C160.622 65.2839 155.825 59.8887 149.836 56.1119C143.847 52.3351 136.911 50.3311 129.83 50.3315Z" fill="#333333" fill-opacity="0.1"/>
</svg>
